<?xml version="1.0" standalone="no"?>
<!DOCTYPE svg PUBLIC "-//W3C//DTD SVG 20010904//EN"
 "http://www.w3.org/TR/2001/REC-SVG-20010904/DTD/svg10.dtd">
<svg version="1.0" xmlns="http://www.w3.org/2000/svg"
 width="355.000000pt" height="355.000000pt" viewBox="0 0 355.000000 355.000000"
 preserveAspectRatio="xMidYMid meet">
<metadata>
Created by potrace 1.14, written by Peter Selinger 2001-2017
</metadata>
<g transform="translate(0.000000,355.000000) scale(0.100000,-0.100000)"
fill="#000000" stroke="none">
<path d="M2628 2665 c-2 -1 -32 -5 -68 -9 -222 -20 -421 -125 -544 -285 -36
-46 -112 -183 -115 -206 -1 -3 -2 -7 -2 -10 -1 -3 -3 -9 -4 -15 -1 -5 -3 -11
-5 -12 -1 -2 -3 -10 -5 -18 -2 -8 -8 -37 -15 -65 -6 -27 -14 -81 -17 -120 -3
-38 -9 -75 -14 -81 -5 -6 -5 -14 -1 -18 11 -12 9 -76 -3 -76 -6 0 -7 -3 0 -8
6 -4 12 -29 14 -57 1 -27 4 -65 5 -83 2 -17 6 -35 9 -39 4 -3 1 -13 -6 -21
-10 -13 -9 -14 2 -7 11 6 13 2 9 -18 -3 -16 -1 -24 5 -20 6 4 8 -2 5 -15 -4
-12 -3 -22 1 -22 12 0 33 -79 25 -92 -4 -6 -3 -8 3 -5 6 4 15 -5 21 -18 9 -20
8 -26 -6 -35 -15 -10 -14 -10 4 -5 15 4 23 0 28 -12 3 -10 9 -24 12 -32 5 -9
3 -11 -6 -6 -9 5 -11 4 -6 -4 4 -6 11 -9 15 -6 5 2 21 -14 37 -38 16 -23 35
-46 42 -50 11 -7 10 -13 -5 -30 -17 -20 -17 -21 0 -8 16 12 21 11 47 -14 16
-15 27 -32 24 -37 -3 -5 -2 -8 3 -7 18 3 34 -1 29 -9 -2 -4 9 -14 25 -21 16
-7 26 -17 22 -24 -4 -6 0 -8 10 -4 18 7 41 -15 29 -29 -4 -4 0 -3 9 4 14 10
19 8 33 -13 9 -14 22 -25 28 -25 7 0 3 7 -8 15 -17 13 -16 14 14 4 17 -6 35
-15 38 -20 3 -5 9 -7 14 -4 5 3 24 -1 42 -8 18 -8 39 -12 46 -10 6 3 12 0 12
-6 0 -5 13 -8 29 -6 23 2 28 0 24 -11 -3 -8 0 -14 6 -14 6 0 11 7 11 16 0 13
3 14 13 5 8 -6 17 -8 20 -4 4 3 7 1 7 -7 0 -9 3 -10 14 -1 10 8 20 6 42 -11
16 -12 23 -15 16 -6 -9 11 -10 18 -2 23 5 3 10 2 10 -2 0 -5 31 -7 69 -6 61 1
69 -1 64 -15 -4 -13 -2 -13 9 2 10 13 23 17 42 14 14 -3 28 -2 31 1 2 4 25 8
51 10 26 1 56 7 67 12 10 6 21 8 24 5 3 -3 14 -1 24 4 13 8 21 6 29 -7 9 -15
10 -14 4 7 -6 21 -5 23 8 12 15 -12 17 -11 75 38 17 14 46 13 37 -2 -4 -7 -3
-8 4 -4 6 4 8 14 5 24 -3 9 -3 14 1 10 4 -3 17 3 28 14 15 15 23 17 33 8 11
-9 12 -7 8 9 -5 20 5 27 32 21 5 -1 7 2 3 6 -10 9 12 35 23 28 5 -3 9 2 9 10
0 8 10 22 23 31 12 8 20 16 18 18 -8 5 55 96 65 93 6 -2 11 2 11 10 0 7 -5 10
-11 7 -6 -4 0 10 12 31 12 20 22 44 22 52 0 9 5 12 12 8 7 -5 9 -2 5 8 -3 9 1
27 8 42 8 14 12 26 10 26 -2 0 0 13 5 28 6 23 4 31 -11 40 -10 7 -24 12 -31
12 -7 0 -102 27 -211 61 -109 33 -201 58 -205 55 -3 -4 -7 -12 -8 -19 -12 -70
-62 -172 -110 -221 -60 -61 -112 -80 -224 -81 -112 0 -165 20 -230 88 -41 43
-77 127 -64 148 5 8 3 9 -6 4 -10 -6 -12 -4 -7 8 3 9 3 18 -1 21 -12 7 -16 67
-16 234 0 124 2 155 14 162 13 9 13 10 0 10 -9 0 -11 3 -5 8 6 4 11 20 13 37
2 16 7 32 10 35 4 3 8 12 10 20 2 8 10 22 17 30 7 8 14 18 14 23 1 14 26 47
36 47 5 0 18 11 30 25 11 13 27 25 35 27 8 2 21 9 28 16 7 6 19 12 25 12 7 0
4 -7 -7 -15 -18 -13 -18 -14 2 -12 11 0 18 5 16 9 -3 4 0 8 6 8 6 0 8 5 5 10
-3 6 -1 10 4 10 6 0 11 -6 11 -12 1 -8 6 -6 14 5 17 22 21 22 23 -3 1 -11 -2
-18 -6 -16 -4 3 -8 -1 -8 -9 0 -11 4 -12 14 -4 7 7 12 18 11 27 -2 8 3 17 10
19 8 3 10 -2 6 -14 -5 -16 -4 -16 8 -2 13 15 54 16 88 2 8 -3 21 -5 28 -4 6 1
12 -3 12 -9 0 -5 -6 -10 -14 -10 -8 0 -18 -4 -21 -10 -7 -11 23 -3 41 11 6 5
20 1 33 -8 18 -12 20 -17 10 -25 -10 -7 -8 -8 7 -3 16 4 29 -3 53 -30 31 -36
64 -102 57 -114 -4 -6 20 -32 29 -31 2 1 21 8 40 16 26 10 41 12 55 4 13 -7
21 -7 26 2 4 7 3 8 -4 4 -7 -4 -12 -2 -12 3 0 15 13 14 29 -1 8 -8 11 -8 8 -2
-6 11 14 18 78 30 16 3 17 2 5 -6 -11 -7 -11 -10 -2 -10 7 0 15 6 18 14 3 8
13 15 22 14 9 0 30 3 46 7 16 3 34 7 40 8 6 1 14 7 18 12 5 6 8 5 8 -4 0 -10
4 -11 13 -3 6 5 23 12 37 14 18 2 25 9 24 23 -1 25 -7 49 -14 55 -3 3 -14 25
-25 50 -55 125 -170 254 -279 314 -66 37 -160 71 -216 80 -19 3 -48 8 -65 12
-29 5 -262 13 -267 9z m472 -1719 c0 -3 -4 -8 -10 -11 -5 -3 -10 -1 -10 4 0 6
5 11 10 11 6 0 10 -2 10 -4z"/>
<path d="M20 2633 c0 -3 9 -18 21 -34 11 -16 17 -29 12 -29 -4 0 -3 -4 2 -8 6
-4 22 -23 37 -43 21 -28 24 -39 15 -48 -9 -9 -8 -11 6 -6 12 5 17 2 17 -9 0
-9 5 -16 10 -16 6 0 10 -7 10 -15 0 -8 5 -15 10 -15 6 0 10 -6 10 -14 0 -8 3
-16 8 -18 10 -4 72 -90 72 -100 0 -8 8 -20 37 -52 7 -8 9 -16 6 -20 -4 -3 -1
-6 6 -6 8 0 11 -7 7 -15 -3 -8 0 -14 6 -12 6 1 13 -4 16 -12 3 -10 0 -12 -12
-8 -11 4 -15 3 -11 -4 4 -6 13 -8 20 -5 16 6 49 -40 40 -55 -4 -5 -2 -8 4 -7
12 4 62 -62 55 -73 -3 -5 -1 -9 5 -9 13 0 164 -228 164 -247 0 -7 2 -11 5 -8
2 2 11 -2 18 -10 17 -17 19 -49 2 -39 -7 4 -8 3 -4 -4 4 -6 13 -9 20 -6 7 3
19 -2 26 -11 7 -8 9 -15 5 -15 -4 0 -2 -7 5 -15 7 -8 10 -24 7 -35 -3 -11 -2
-22 3 -25 4 -3 5 -20 1 -38 -5 -18 -5 -41 -1 -52 4 -11 3 -25 -2 -32 -5 -7 -5
-13 0 -17 9 -5 5 -75 -3 -85 -2 -1 0 -14 5 -27 6 -15 6 -26 -1 -30 -6 -3 -6
-10 -1 -17 5 -7 8 -21 6 -32 -7 -37 -7 -82 0 -93 3 -6 2 -14 -4 -17 -7 -4 -7
-11 -2 -18 5 -7 8 -21 6 -32 -7 -41 -7 -71 0 -92 4 -13 4 -23 -1 -23 -4 0 -8
-13 -8 -30 0 -25 4 -30 23 -30 13 0 21 -4 18 -9 -3 -5 2 -15 12 -22 15 -12 16
-12 5 2 -13 16 -8 29 9 29 5 0 6 -6 2 -12 -6 -10 -4 -10 7 0 18 17 27 15 32
-5 4 -14 5 -15 6 -2 1 12 15 16 71 16 39 1 70 -3 70 -7 0 -4 7 -11 16 -14 14
-5 15 -4 5 8 -9 11 -7 14 14 14 14 0 25 -4 25 -9 0 -5 5 -9 11 -9 5 0 7 5 4
10 -3 6 -1 10 4 10 6 0 11 -4 11 -10 0 -5 5 -10 11 -10 5 0 8 4 5 8 -8 13 128
10 136 -2 5 -7 8 -7 8 2 0 6 5 12 11 12 5 0 7 -6 4 -12 -4 -7 0 -5 8 4 8 10
18 14 22 10 5 -4 4 0 0 8 -12 20 -12 160 0 160 5 0 4 4 -4 9 -9 6 -10 11 -2
15 6 4 8 13 4 19 -10 15 -10 76 -1 104 4 13 3 23 -4 25 -8 3 -8 10 1 25 8 16
8 24 0 29 -8 4 -7 9 2 15 12 7 12 9 0 9 -10 0 -11 3 -2 14 7 8 8 17 3 19 -9 6
-7 101 2 116 4 5 1 11 -5 13 -9 3 -9 9 0 25 6 12 7 24 2 27 -23 15 4 112 41
149 13 12 24 28 25 34 5 21 74 113 82 109 4 -3 7 5 7 17 -1 16 5 22 21 22 12
0 26 5 30 9 4 5 3 7 -2 3 -6 -3 -17 -2 -23 2 -10 6 -9 11 4 22 15 12 17 12 9
0 -5 -10 -4 -12 4 -7 6 4 9 12 6 17 -7 11 63 119 77 119 5 0 6 5 3 10 -3 6 -1
10 5 10 6 0 8 5 4 12 -5 8 -2 9 9 5 9 -3 19 -1 23 5 4 7 3 8 -4 4 -22 -14 -12
23 10 38 12 9 18 16 13 16 -6 0 -3 6 6 13 9 7 16 14 16 17 0 10 137 216 151
228 9 6 12 12 8 12 -5 0 -3 7 4 15 7 8 16 13 20 10 5 -3 12 0 16 6 4 8 3 9 -4
5 -15 -9 -15 -1 -1 25 5 11 14 17 19 14 6 -3 7 0 4 8 -3 8 0 18 7 23 8 5 10 3
4 -6 -5 -9 -4 -11 4 -6 6 4 9 12 6 17 -4 5 2 21 13 37 11 15 24 37 31 49 l11
22 -277 0 c-153 0 -286 -2 -295 -5 -15 -4 -68 -84 -141 -209 -6 -11 -26 -44
-44 -72 -18 -29 -33 -54 -33 -56 0 -10 -114 -192 -121 -195 -5 -2 -9 -13 -9
-24 0 -17 -2 -18 -15 -5 -8 8 -24 32 -35 53 -12 22 -47 82 -80 134 -32 52 -59
101 -59 108 -1 6 -5 12 -11 12 -5 0 -10 4 -10 9 0 7 -24 50 -98 169 -12 20
-27 47 -33 59 -11 21 -14 22 -305 22 -162 0 -294 -3 -294 -6z"/>
<path d="M1746 2388 c3 -5 10 -6 15 -3 13 9 11 12 -6 12 -8 0 -12 -4 -9 -9z"/>
<path d="M173 2335 c0 -8 4 -12 9 -9 5 3 6 10 3 15 -9 13 -12 11 -12 -6z"/>
<path d="M1707 2329 c7 -7 15 -10 18 -7 3 3 -2 9 -12 12 -14 6 -15 5 -6 -5z"/>
<path d="M207 2309 c7 -7 15 -10 18 -7 3 3 -2 9 -12 12 -14 6 -15 5 -6 -5z"/>
<path d="M2777 2235 c-4 -8 -3 -16 1 -19 4 -3 9 4 9 15 2 23 -3 25 -10 4z"/>
<path d="M2730 2232 c0 -5 7 -9 15 -9 8 0 12 4 9 9 -3 4 -9 8 -15 8 -5 0 -9
-4 -9 -8z"/>
<path d="M253 2215 c0 -8 4 -12 9 -9 5 3 6 10 3 15 -9 13 -12 11 -12 -6z"/>
<path d="M1635 2219 c-4 -6 -5 -12 -2 -15 2 -3 7 2 10 11 7 17 1 20 -8 4z"/>
<path d="M2868 2213 c7 -3 16 -2 19 1 4 3 -2 6 -13 5 -11 0 -14 -3 -6 -6z"/>
<path d="M2534 2199 c-3 -6 -2 -15 3 -20 5 -5 9 -1 9 11 0 23 -2 24 -12 9z"/>
<path d="M2855 2190 c3 -5 8 -10 11 -10 2 0 4 5 4 10 0 6 -5 10 -11 10 -5 0
-7 -4 -4 -10z"/>
<path d="M2908 2173 c6 -2 18 -2 25 0 6 3 1 5 -13 5 -14 0 -19 -2 -12 -5z"/>
<path d="M2915 2150 c-3 -5 -1 -10 4 -10 6 0 11 5 11 10 0 6 -2 10 -4 10 -3 0
-8 -4 -11 -10z"/>
<path d="M2973 2105 c0 -8 4 -12 9 -9 4 3 8 9 8 15 0 5 -4 9 -8 9 -5 0 -9 -7
-9 -15z"/>
<path d="M3411 2074 c0 -11 3 -14 6 -6 3 7 2 16 -1 19 -3 4 -6 -2 -5 -13z"/>
<path d="M3310 2066 c4 -4 16 -4 26 2 16 9 14 10 -8 9 -15 -1 -23 -6 -18 -11z"/>
<path d="M3355 2059 c-4 -6 -5 -12 -2 -15 2 -3 7 2 10 11 7 17 1 20 -8 4z"/>
<path d="M377 2049 c7 -7 15 -10 18 -7 3 3 -2 9 -12 12 -14 6 -15 5 -6 -5z"/>
<path d="M3230 2050 c0 -5 5 -10 10 -10 6 0 10 5 10 10 0 6 -4 10 -10 10 -5 0
-10 -4 -10 -10z"/>
<path d="M3104 2028 c-4 -7 -4 -10 1 -6 4 4 17 2 29 -4 19 -10 20 -10 7 5 -16
20 -27 21 -37 5z"/>
<path d="M1471 2002 c-7 -14 -6 -19 4 -19 8 0 11 7 7 15 -4 11 -1 14 12 9 10
-4 15 -3 11 3 -9 15 -23 12 -34 -8z"/>
<path d="M3075 2010 c3 -5 8 -10 11 -10 2 0 4 5 4 10 0 6 -5 10 -11 10 -5 0
-7 -4 -4 -10z"/>
<path d="M460 1916 c0 -2 8 -10 18 -17 15 -13 16 -12 3 4 -13 16 -21 21 -21
13z"/>
<path d="M513 1842 c-1 -22 0 -24 9 -8 6 10 6 22 2 26 -5 5 -10 -3 -11 -18z"/>
<path d="M1395 1850 c3 -5 8 -10 11 -10 2 0 4 5 4 10 0 6 -5 10 -11 10 -5 0
-7 -4 -4 -10z"/>
<path d="M1270 1669 c0 -5 5 -7 10 -4 6 3 10 8 10 11 0 2 -4 4 -10 4 -5 0 -10
-5 -10 -11z"/>
<path d="M1876 1427 c3 -10 9 -15 12 -12 3 3 0 11 -7 18 -10 9 -11 8 -5 -6z"/>
<path d="M3476 1303 c-6 -14 -5 -15 5 -6 7 7 10 15 7 18 -3 3 -9 -2 -12 -12z"/>
<path d="M1956 1212 c-3 -4 4 -9 15 -9 23 -2 25 3 4 10 -8 4 -16 3 -19 -1z"/>
<path d="M3390 1151 c0 -6 4 -13 10 -16 6 -3 7 1 4 9 -7 18 -14 21 -14 7z"/>
<path d="M2053 1095 c0 -8 4 -12 9 -9 5 3 6 10 3 15 -9 13 -12 11 -12 -6z"/>
<path d="M3310 1049 c0 -5 5 -7 10 -4 6 3 10 8 10 11 0 2 -4 4 -10 4 -5 0 -10
-5 -10 -11z"/>
<path d="M3270 1036 c0 -2 7 -7 16 -10 8 -3 12 -2 9 4 -6 10 -25 14 -25 6z"/>
<path d="M3231 994 c0 -11 3 -14 6 -6 3 7 2 16 -1 19 -3 4 -6 -2 -5 -13z"/>
<path d="M2195 980 c-3 -6 1 -7 9 -4 18 7 21 14 7 14 -6 0 -13 -4 -16 -10z"/>
<path d="M3151 957 c-8 -10 -7 -14 2 -14 8 0 14 6 14 14 0 7 -1 13 -2 13 -2 0
-8 -6 -14 -13z"/>
<path d="M2236 948 c3 -5 10 -6 15 -3 13 9 11 12 -6 12 -8 0 -12 -4 -9 -9z"/>
<path d="M3206 952 c-3 -5 1 -9 9 -9 8 0 12 4 9 9 -3 4 -7 8 -9 8 -2 0 -6 -4
-9 -8z"/>
<path d="M2321 911 c-10 -7 -7 -9 12 -8 14 1 23 5 20 10 -6 9 -15 9 -32 -2z"/>
<path d="M2390 912 c0 -6 9 -12 20 -15 11 -3 20 -3 20 -1 0 2 -9 8 -20 14 -11
6 -20 7 -20 2z"/>
<path d="M3106 908 c3 -5 10 -6 15 -3 13 9 11 12 -6 12 -8 0 -12 -4 -9 -9z"/>
<path d="M856 898 c3 -4 11 -5 19 -1 21 7 19 12 -4 10 -11 0 -18 -5 -15 -9z"/>
<path d="M3030 900 c-11 -7 -11 -10 -2 -10 8 0 10 -5 6 -12 -4 -7 -3 -9 1 -5
7 6 17 37 12 37 -1 0 -9 -5 -17 -10z"/>
<path d="M755 891 c-3 -5 -2 -12 3 -15 5 -3 9 1 9 9 0 17 -3 19 -12 6z"/>
<path d="M896 891 c-3 -5 2 -15 12 -22 15 -13 16 -12 4 3 -10 13 -10 17 0 21
9 4 9 6 1 6 -6 1 -14 -3 -17 -8z"/>
<path d="M970 890 c0 -5 5 -10 11 -10 5 0 7 5 4 10 -3 6 -8 10 -11 10 -2 0 -4
-4 -4 -10z"/>
<path d="M1140 896 c0 -2 7 -7 16 -10 8 -3 12 -2 9 4 -6 10 -25 14 -25 6z"/>
<path d="M2973 885 c0 -8 4 -12 9 -9 5 3 6 10 3 15 -9 13 -12 11 -12 -6z"/>
<path d="M1010 886 c0 -2 8 -10 18 -17 15 -13 16 -12 3 4 -13 16 -21 21 -21
13z"/>
<path d="M2596 877 c3 -10 9 -15 12 -12 3 3 0 11 -7 18 -10 9 -11 8 -5 -6z"/>
<path d="M2890 881 c0 -6 4 -13 10 -16 6 -3 7 1 4 9 -7 18 -14 21 -14 7z"/>
<path d="M1130 876 c0 -2 7 -7 16 -10 8 -3 12 -2 9 4 -6 10 -25 14 -25 6z"/>
<path d="M2536 872 c-2 -4 4 -8 14 -8 10 0 16 4 14 8 -3 4 -9 8 -14 8 -5 0
-11 -4 -14 -8z"/>
<path d="M2675 870 c3 -5 8 -10 11 -10 2 0 4 5 4 10 0 6 -5 10 -11 10 -5 0 -7
-4 -4 -10z"/>
<path d="M2810 869 c0 -5 5 -7 10 -4 6 3 10 8 10 11 0 2 -4 4 -10 4 -5 0 -10
-5 -10 -11z"/>
</g>
</svg>
